# xmcd
#
# Track frame offsets:
#	185
#	15247
#	31310
#	49627
#	68972
#	85087
#	102986
#	134707
#	149903
#	169022
#	182261
#	205193
#
# Disc length: 2928 seconds
#
# Revision: 1
# Processed by: cddbd v1.4PL0 Copyright (c) Steve Scherf et al.
# Submitted via: audiograbber 1.80
#
DISCID=a20b6e0c
DTITLE=Acoustic Blues Trio - Demo
DYEAR=1900
DGENRE=
TTITLE0=Down To the Water
TTITLE1=Comin' round for you
TTITLE2=Hot Girl
TTITLE3=Movin On
TTITLE4=I Salute You
TTITLE5=Love hungry Man
TTITLE6=Lowdown Shameless and Mean
TTITLE7=Gonna get You
TTITLE8=Restless Soul
TTITLE9=Lucky
TTITLE10=Lookin' for Love
TTITLE11=Lisa-Marie
EXTD=
EXTT0=
EXTT1=
EXTT2=
EXTT3=
EXTT4=
EXTT5=
EXTT6=
EXTT7=
EXTT8=
EXTT9=
EXTT10=
EXTT11=
PLAYORDER=
